<svg class="animated" id="freepik_stories-yes-or-no" xmlns="http://www.w3.org/2000/svg" viewBox="0 0 500 500" version="1.1" xmlns:xlink="http://www.w3.org/1999/xlink" xmlns:svgjs="http://svgjs.com/svgjs"><style>svg#freepik_stories-yes-or-no:not(.animated) .animable {opacity: 0;}svg#freepik_stories-yes-or-no.animated #freepik--No--inject-7 {animation: 3s Infinite  linear floating;animation-delay: 0s;}svg#freepik_stories-yes-or-no.animated #freepik--Yes--inject-7 {animation: 3s Infinite  linear floating;animation-delay: 0s;}            @keyframes floating {                0% {                    opacity: 1;                    transform: translateY(0px);                }                50% {                    transform: translateY(-10px);                }                100% {                    opacity: 1;                    transform: translateY(0px);                }            }        </style><g id="freepik--background-simple--inject-7" class="animable" style="transform-origin: 245.997px 233.82px;"><path d="M293.69,220.7c-67.78-17-89.36-160.54-191.3-80.24-72.31,57-31,192.17,58.77,174.79,54.34-10.52,46-11.36,91.45,13.71,46.06,25.4,97.05,37.67,147.56-9.64,26.14-24.48,37.26-83.25,12.8-113.14C382.38,168.8,335.1,231.08,293.69,220.7Z" style="fill: rgb(186, 104, 200); transform-origin: 245.997px 233.82px;" id="el0mc1e8hw2iyb" class="animable"></path><g id="elqkyqvs8rbim"><path d="M293.69,220.7c-67.78-17-89.36-160.54-191.3-80.24-72.31,57-31,192.17,58.77,174.79,54.34-10.52,46-11.36,91.45,13.71,46.06,25.4,97.05,37.67,147.56-9.64,26.14-24.48,37.26-83.25,12.8-113.14C382.38,168.8,335.1,231.08,293.69,220.7Z" style="fill: rgb(255, 255, 255); opacity: 0.9; transform-origin: 245.997px 233.82px;" class="animable"></path></g></g><g id="freepik--Shadow--inject-7" class="animable" style="transform-origin: 250px 416.24px;"><ellipse id="freepik--path--inject-7" cx="250" cy="416.24" rx="193.89" ry="11.32" style="fill: rgb(245, 245, 245); transform-origin: 250px 416.24px;" class="animable"></ellipse></g><g id="freepik--Plant--inject-7" class="animable" style="transform-origin: 108.194px 369.921px;"><path d="M106.34,394.16s4.75-10.36-.68-20.58-7-12.62-3.54-14.72,5,8.18,5,8.18a23.07,23.07,0,0,0,.51-14.46c-2.41-7.39-3.92-19.43-.63-20.72s.63,15,3.48,20.58a47.7,47.7,0,0,0,2.79-12.13c.4-5.94-.22-15.42,2.38-17.85s4.26-.75,1.71,12.35a136.71,136.71,0,0,0-2.54,23.76s5.64-17.19,9.42-17.69,3.78,5.06.54,9.89-9.48,13.48-10.5,17.93c0,0,6.18-12.94,11.75-9s-4.85,11.77-9.49,14.6-7.86,20.51-7.86,20.51Z" style="fill: rgb(186, 104, 200); transform-origin: 113.956px 358.166px;" id="el11r24pzyrry" class="animable"></path><g id="eljtgciocwm9r"><path d="M106.34,394.16s4.75-10.36-.68-20.58-7-12.62-3.54-14.72,5,8.18,5,8.18a23.07,23.07,0,0,0,.51-14.46c-2.41-7.39-3.92-19.43-.63-20.72s.63,15,3.48,20.58a47.7,47.7,0,0,0,2.79-12.13c.4-5.94-.22-15.42,2.38-17.85s4.26-.75,1.71,12.35a136.71,136.71,0,0,0-2.54,23.76s5.64-17.19,9.42-17.69,3.78,5.06.54,9.89-9.48,13.48-10.5,17.93c0,0,6.18-12.94,11.75-9s-4.85,11.77-9.49,14.6-7.86,20.51-7.86,20.51Z" style="isolation: isolate; opacity: 0.2; transform-origin: 113.956px 358.166px;" class="animable"></path></g><path d="M110.09,398.41s-4.62-10.43.93-20.57,7.15-12.52,3.71-14.66-5.14,8.1-5.14,8.1a23.11,23.11,0,0,1-.34-14.46c2.5-7.36,4.15-19.38.88-20.72s-.81,15-3.73,20.53a48,48,0,0,1-2.64-12.17c-.32-5.94.4-15.41-2.16-17.88s-4.25-.81-1.86,12.33A136.55,136.55,0,0,1,102,362.69s-5.43-17.27-9.21-17.82-3.84,5-.66,9.88,9.32,13.62,10.3,18.08c0,0-6-13-11.65-9.14s4.7,11.84,9.31,14.74,7.61,20.63,7.61,20.63Z" style="fill: rgb(186, 104, 200); transform-origin: 102.836px 362.338px;" id="eleg9o9z0hxq" class="animable"></path><polygon points="88.76 390.97 126.97 390.97 123.88 418.32 91.85 418.32 88.76 390.97" style="fill: rgb(38, 50, 56); transform-origin: 107.865px 404.645px;" id="elg0nm1amfxs4" class="animable"></polygon></g><g id="freepik--Sign--inject-7" class="animable" style="transform-origin: 353.52px 275.068px;"><polygon points="360.31 413.22 355.89 413.22 355.89 176.63 351.14 176.63 351.14 413.22 346.72 413.22 343.72 418.32 351.14 418.32 355.89 418.32 363.31 418.32 360.31 413.22" style="fill: rgb(38, 50, 56); transform-origin: 353.515px 297.475px;" id="eldqtd6frasra" class="animable"></polygon><g id="ela85xmjwf6a"><circle cx="353.52" cy="174.69" r="35.64" style="fill: rgb(186, 104, 200); transform-origin: 353.52px 174.69px; transform: rotate(-76.72deg);" class="animable"></circle></g><g id="elmgy6lv3s8n"><circle cx="353.51" cy="174.69" r="31.64" style="fill: rgb(255, 255, 255); opacity: 0.8; transform-origin: 353.51px 174.69px;" class="animable"></circle></g><path d="M357.63,168.38c0-2.26-1.93-3.79-5-3.79A7.6,7.6,0,0,0,346,167.7l-3.91-2.54c2.26-3.07,5.89-4.92,10.93-4.92,5.92,0,9.88,2.7,9.88,7.34,0,6.57-6.9,7.17-6.9,11.93H350.9C350.9,173.54,357.63,172.41,357.63,168.38ZM350.26,186a3.21,3.21,0,1,1,3.22,3.14A3.11,3.11,0,0,1,350.26,186Z" style="fill: rgb(186, 104, 200); transform-origin: 352.495px 174.691px;" id="elubfwsiywija" class="animable"></path><g id="el0ufojskdsube"><polygon points="360.31 413.22 355.89 413.22 355.89 219.66 351.14 216.66 351.14 413.22 346.72 413.22 343.72 418.32 351.14 418.32 355.89 418.32 363.31 418.32 360.31 413.22" style="fill: rgb(255, 255, 255); opacity: 0.3; transform-origin: 353.515px 317.49px;" class="animable"></polygon></g></g><g id="freepik--button-1--inject-7" class="animable" style="transform-origin: 301.72px 332.785px;"><polygon points="333.78 413.22 270.98 413.22 270.98 276.27 300.76 247.25 333.78 247.25 333.78 413.22" style="fill: rgb(38, 50, 56); transform-origin: 302.38px 330.235px;" id="elxvz63my4xno" class="animable"></polygon><g id="elrthcc17lipe"><polygon points="333.78 413.22 270.98 413.22 270.98 276.27 300.76 247.25 333.78 247.25 333.78 413.22" style="fill: rgb(255, 255, 255); opacity: 0.7; transform-origin: 302.38px 330.235px;" class="animable"></polygon></g><g id="elx79tqfdlgdk"><polygon points="333.78 413.22 304 413.22 304 276.27 333.78 247.25 333.78 413.22" style="opacity: 0.2; transform-origin: 318.89px 330.235px;" class="animable"></polygon></g><g id="elqxd4nyornb"><polygon points="270.98 276.27 304 276.27 333.78 247.25 300.76 247.25 270.98 276.27" style="fill: rgb(255, 255, 255); opacity: 0.4; transform-origin: 302.38px 261.76px;" class="animable"></polygon></g><g id="elmbf8jpfcnw"><ellipse cx="302.83" cy="261.02" rx="13.53" ry="5.31" style="opacity: 0.5; transform-origin: 302.83px 261.02px; transform: rotate(-17.87deg);" class="animable"></ellipse></g><g id="el6ft0uhu06m"><path d="M311.3,259.43c-3.12,2.95-9.67,5.34-14.62,5.34s-6.46-2.39-3.34-5.34,9.67-5.35,14.62-5.35S314.42,256.47,311.3,259.43Z" style="opacity: 0.5; transform-origin: 302.32px 259.425px;" class="animable"></path></g><g id="el5b4ihoj1bvd"><ellipse cx="301.38" cy="256.52" rx="12.34" ry="4.85" style="fill: rgb(186, 104, 200); transform-origin: 301.38px 256.52px; transform: rotate(-17.87deg);" class="animable"></ellipse></g><g id="elt5ikv2nwxds"><path d="M306.79,255.05c-2.15,2-6.67,3.68-10.09,3.68s-4.45-1.65-2.3-3.68,6.67-3.69,10.09-3.69S308.94,253,306.79,255.05Z" style="fill: rgb(255, 255, 255); opacity: 0.1; transform-origin: 300.595px 255.045px;" class="animable"></path></g><g id="el43aj3f7we3n"><path d="M311.4,256.52c-3.48,3.3-10.78,6-16.31,6-3.55,0-5.5-1.09-5.54-2.75.72,1,2.49,1.65,5.18,1.65,5.53,0,12.84-2.67,16.32-6a4.73,4.73,0,0,0,1.82-3.19C313.62,253.31,313.18,254.83,311.4,256.52Z" style="opacity: 0.2; transform-origin: 301.385px 257.375px;" class="animable"></path></g><g id="elt03dsy0ji8r"><polygon points="273.52 310.43 272.7 311.25 272.7 279.64 301.62 279.64 300.95 280.89 273.52 310.43" style="opacity: 0.2; transform-origin: 287.16px 295.445px;" class="animable"></polygon></g><g id="eluv2lhpxfdtt"><polygon points="301.62 279.64 301.62 311.25 272.7 311.25 273.52 310.43 300.95 280.89 301.62 279.64" style="fill: rgb(255, 255, 255); opacity: 0.4; transform-origin: 287.16px 295.445px;" class="animable"></polygon></g><rect x="273.52" y="280.89" width="3.92" height="4.22" style="fill: rgb(38, 50, 56); transform-origin: 275.48px 283px;" id="el5d3b363i76w" class="animable"></rect><rect x="277.44" y="280.89" width="3.92" height="4.22" style="fill: rgb(38, 50, 56); transform-origin: 279.4px 283px;" id="elz1bfwo8cks" class="animable"></rect><rect x="281.36" y="280.89" width="3.92" height="4.22" style="fill: rgb(38, 50, 56); transform-origin: 283.32px 283px;" id="el80j1j5qwiuy" class="animable"></rect><rect x="285.28" y="280.89" width="3.92" height="4.22" style="fill: rgb(38, 50, 56); transform-origin: 287.24px 283px;" id="elao9m7a12ph" class="animable"></rect><rect x="289.2" y="280.89" width="3.92" height="4.22" style="fill: rgb(38, 50, 56); transform-origin: 291.16px 283px;" id="el5fl2rcpem6" class="animable"></rect><rect x="293.12" y="280.89" width="3.92" height="4.22" style="fill: rgb(38, 50, 56); transform-origin: 295.08px 283px;" id="el1d0obwy1lk8" class="animable"></rect><rect x="297.03" y="280.89" width="3.92" height="4.22" style="fill: rgb(38, 50, 56); transform-origin: 298.99px 283px;" id="elgysu3ddemgv" class="animable"></rect><rect x="273.52" y="285.11" width="3.92" height="4.22" style="fill: rgb(38, 50, 56); transform-origin: 275.48px 287.22px;" id="el3woo4koz3q6" class="animable"></rect><rect x="277.44" y="285.11" width="3.92" height="4.22" style="fill: rgb(38, 50, 56); transform-origin: 279.4px 287.22px;" id="elxtgppt8z0u" class="animable"></rect><rect x="281.36" y="285.11" width="3.92" height="4.22" style="fill: rgb(38, 50, 56); transform-origin: 283.32px 287.22px;" id="elsgnu7cpbxz" class="animable"></rect><rect x="285.28" y="285.11" width="3.92" height="4.22" style="fill: rgb(38, 50, 56); transform-origin: 287.24px 287.22px;" id="elc2nf884d699" class="animable"></rect><rect x="289.2" y="285.11" width="3.92" height="4.22" style="fill: rgb(38, 50, 56); transform-origin: 291.16px 287.22px;" id="elctpk8xrrckn" class="animable"></rect><rect x="293.12" y="285.11" width="3.92" height="4.22" style="fill: rgb(38, 50, 56); transform-origin: 295.08px 287.22px;" id="elw9cvrute16a" class="animable"></rect><rect x="297.03" y="285.11" width="3.92" height="4.22" style="fill: rgb(38, 50, 56); transform-origin: 298.99px 287.22px;" id="elyx4subjpqim" class="animable"></rect><rect x="273.52" y="289.33" width="3.92" height="4.22" style="fill: rgb(38, 50, 56); transform-origin: 275.48px 291.44px;" id="elilveholeqtm" class="animable"></rect><rect x="277.44" y="289.33" width="3.92" height="4.22" style="fill: rgb(38, 50, 56); transform-origin: 279.4px 291.44px;" id="elc83qy2bs0n" class="animable"></rect><rect x="281.36" y="289.33" width="3.92" height="4.22" style="fill: rgb(38, 50, 56); transform-origin: 283.32px 291.44px;" id="elihhqmt4b14k" class="animable"></rect><rect x="285.28" y="289.33" width="3.92" height="4.22" style="fill: rgb(38, 50, 56); transform-origin: 287.24px 291.44px;" id="el8v7lkztm9qm" class="animable"></rect><rect x="289.2" y="289.33" width="3.92" height="4.22" style="fill: rgb(38, 50, 56); transform-origin: 291.16px 291.44px;" id="eld3yugqkdy5" class="animable"></rect><rect x="293.12" y="289.33" width="3.92" height="4.22" style="fill: rgb(38, 50, 56); transform-origin: 295.08px 291.44px;" id="ely67a4v01eod" class="animable"></rect><rect x="297.03" y="289.33" width="3.92" height="4.22" style="fill: rgb(38, 50, 56); transform-origin: 298.99px 291.44px;" id="elt3uzrhq8x9" class="animable"></rect><rect x="273.52" y="293.55" width="3.92" height="4.22" style="fill: rgb(38, 50, 56); transform-origin: 275.48px 295.66px;" id="elz3x6goroi8o" class="animable"></rect><rect x="277.44" y="293.55" width="3.92" height="4.22" style="fill: rgb(38, 50, 56); transform-origin: 279.4px 295.66px;" id="elwc699qjjle" class="animable"></rect><rect x="281.36" y="293.55" width="3.92" height="4.22" style="fill: rgb(38, 50, 56); transform-origin: 283.32px 295.66px;" id="elix8mpi3u3v" class="animable"></rect><rect x="285.28" y="293.55" width="3.92" height="4.22" style="fill: rgb(38, 50, 56); transform-origin: 287.24px 295.66px;" id="elgnrobcx02kd" class="animable"></rect><rect x="289.2" y="293.55" width="3.92" height="4.22" style="fill: rgb(38, 50, 56); transform-origin: 291.16px 295.66px;" id="ela0esrlpctii" class="animable"></rect><rect x="293.12" y="293.55" width="3.92" height="4.22" style="fill: rgb(38, 50, 56); transform-origin: 295.08px 295.66px;" id="elxefteuabni" class="animable"></rect><rect x="297.03" y="293.55" width="3.92" height="4.22" style="fill: rgb(38, 50, 56); transform-origin: 298.99px 295.66px;" id="elxrtgv81mqhp" class="animable"></rect><rect x="273.52" y="297.77" width="3.92" height="4.22" style="fill: rgb(38, 50, 56); transform-origin: 275.48px 299.88px;" id="elt2wf1ry89vs" class="animable"></rect><rect x="277.44" y="297.77" width="3.92" height="4.22" style="fill: rgb(38, 50, 56); transform-origin: 279.4px 299.88px;" id="elf09nzpa0wuh" class="animable"></rect><rect x="281.36" y="297.77" width="3.92" height="4.22" style="fill: rgb(38, 50, 56); transform-origin: 283.32px 299.88px;" id="el4j8jwufv22d" class="animable"></rect><rect x="285.28" y="297.77" width="3.92" height="4.22" style="fill: rgb(38, 50, 56); transform-origin: 287.24px 299.88px;" id="elfdgy1z9knnt" class="animable"></rect><rect x="289.2" y="297.77" width="3.92" height="4.22" style="fill: rgb(38, 50, 56); transform-origin: 291.16px 299.88px;" id="el0vyayquw5x7a" class="animable"></rect><rect x="293.12" y="297.77" width="3.92" height="4.22" style="fill: rgb(38, 50, 56); transform-origin: 295.08px 299.88px;" id="ela83kae15z67" class="animable"></rect><rect x="297.03" y="297.77" width="3.92" height="4.22" style="fill: rgb(38, 50, 56); transform-origin: 298.99px 299.88px;" id="eliph3zwikr0i" class="animable"></rect><rect x="273.52" y="301.99" width="3.92" height="4.22" style="fill: rgb(38, 50, 56); transform-origin: 275.48px 304.1px;" id="ellw2x87dlef" class="animable"></rect><rect x="277.44" y="301.99" width="3.92" height="4.22" style="fill: rgb(38, 50, 56); transform-origin: 279.4px 304.1px;" id="elq3wh0fie1ef" class="animable"></rect><rect x="281.36" y="301.99" width="3.92" height="4.22" style="fill: rgb(38, 50, 56); transform-origin: 283.32px 304.1px;" id="elb83xdt20gc8" class="animable"></rect><rect x="285.28" y="301.99" width="3.92" height="4.22" style="fill: rgb(38, 50, 56); transform-origin: 287.24px 304.1px;" id="eldozz5dcps48" class="animable"></rect><rect x="289.2" y="301.99" width="3.92" height="4.22" style="fill: rgb(38, 50, 56); transform-origin: 291.16px 304.1px;" id="el6mzu5be1siy" class="animable"></rect><rect x="293.12" y="301.99" width="3.92" height="4.22" style="fill: rgb(38, 50, 56); transform-origin: 295.08px 304.1px;" id="elmhui0wk6yz" class="animable"></rect><rect x="297.03" y="301.99" width="3.92" height="4.22" style="fill: rgb(38, 50, 56); transform-origin: 298.99px 304.1px;" id="elkfiiexhtv7r" class="animable"></rect><rect x="273.52" y="306.21" width="3.92" height="4.22" style="fill: rgb(38, 50, 56); transform-origin: 275.48px 308.32px;" id="elhfpxujt6l27" class="animable"></rect><rect x="277.44" y="306.21" width="3.92" height="4.22" style="fill: rgb(38, 50, 56); transform-origin: 279.4px 308.32px;" id="eljtd9txb1ay" class="animable"></rect><rect x="281.36" y="306.21" width="3.92" height="4.22" style="fill: rgb(38, 50, 56); transform-origin: 283.32px 308.32px;" id="elb6o9cdwvrt" class="animable"></rect><rect x="285.28" y="306.21" width="3.92" height="4.22" style="fill: rgb(38, 50, 56); transform-origin: 287.24px 308.32px;" id="elgf6v3qc6ibc" class="animable"></rect><rect x="289.2" y="306.21" width="3.92" height="4.22" style="fill: rgb(38, 50, 56); transform-origin: 291.16px 308.32px;" id="elr4a7ghgaxrm" class="animable"></rect><rect x="293.12" y="306.21" width="3.92" height="4.22" style="fill: rgb(38, 50, 56); transform-origin: 295.08px 308.32px;" id="el8d5zc2c8gap" class="animable"></rect><rect x="297.03" y="306.21" width="3.92" height="4.22" style="fill: rgb(38, 50, 56); transform-origin: 298.99px 308.32px;" id="elceztihaptvw" class="animable"></rect><rect x="293.12" y="285.11" width="3.92" height="4.22" style="fill: rgb(186, 104, 200); transform-origin: 295.08px 287.22px;" id="elgn7ppe0ozp9" class="animable"></rect><rect x="289.2" y="289.33" width="3.92" height="4.22" style="fill: rgb(186, 104, 200); transform-origin: 291.16px 291.44px;" id="eljq5tzo3jp9" class="animable"></rect><rect x="285.28" y="293.55" width="3.92" height="4.22" style="fill: rgb(186, 104, 200); transform-origin: 287.24px 295.66px;" id="elriqi15pv5x" class="animable"></rect><rect x="281.36" y="297.77" width="3.92" height="4.22" style="fill: rgb(186, 104, 200); transform-origin: 283.32px 299.88px;" id="el6vvemd9abl2" class="animable"></rect><rect x="277.44" y="293.55" width="3.92" height="4.22" style="fill: rgb(186, 104, 200); transform-origin: 279.4px 295.66px;" id="el6kiwwqgz4is" class="animable"></rect><polygon points="335.72 408.12 267.72 408.12 264.51 418.32 338.93 418.32 335.72 408.12" style="fill: rgb(186, 104, 200); transform-origin: 301.72px 413.22px;" id="el830ymrwrtiv" class="animable"></polygon><g id="elpxur6fhn5m"><polygon points="301.62 418.32 301.72 408.22 335.72 408.12 338.93 418.32 301.62 418.32" style="opacity: 0.2; transform-origin: 320.275px 413.22px;" class="animable"></polygon></g></g><g id="freepik--button-2--inject-7" class="animable" style="transform-origin: 371.765px 332.785px;"><polygon points="403.83 413.22 341.02 413.22 341.02 276.27 370.81 247.25 403.83 247.25 403.83 413.22" style="fill: rgb(38, 50, 56); transform-origin: 372.425px 330.235px;" id="elek4px0ywsvj" class="animable"></polygon><g id="el55ciq2ywmjs"><polygon points="403.83 413.22 341.02 413.22 341.02 276.27 370.81 247.25 403.83 247.25 403.83 413.22" style="fill: rgb(255, 255, 255); opacity: 0.7; transform-origin: 372.425px 330.235px;" class="animable"></polygon></g><g id="elodgyerwtlzq"><polygon points="403.83 413.22 374.04 413.22 374.04 276.27 403.83 247.25 403.83 413.22" style="opacity: 0.2; transform-origin: 388.935px 330.235px;" class="animable"></polygon></g><g id="elim46ql9y6ej"><polygon points="341.02 276.27 374.04 276.27 403.83 247.25 370.81 247.25 341.02 276.27" style="fill: rgb(255, 255, 255); opacity: 0.4; transform-origin: 372.425px 261.76px;" class="animable"></polygon></g><g id="elulwloag0itf"><ellipse cx="372.88" cy="261.02" rx="13.53" ry="5.31" style="opacity: 0.5; transform-origin: 372.88px 261.02px; transform: rotate(-17.87deg);" class="animable"></ellipse></g><g id="eltlg1axyotmf"><path d="M381.34,259.43c-3.12,2.95-9.66,5.34-14.62,5.34s-6.45-2.39-3.33-5.34,9.66-5.35,14.62-5.35S384.46,256.47,381.34,259.43Z" style="opacity: 0.5; transform-origin: 372.365px 259.425px;" class="animable"></path></g><g id="el4z7edqm4gho"><ellipse cx="371.43" cy="256.52" rx="12.34" ry="4.85" style="fill: rgb(186, 104, 200); transform-origin: 371.43px 256.52px; transform: rotate(-17.87deg);" class="animable"></ellipse></g><g id="ellnzwttb4bi"><path d="M376.83,255.05c-2.15,2-6.66,3.68-10.08,3.68s-4.45-1.65-2.3-3.68,6.66-3.69,10.08-3.69S379,253,376.83,255.05Z" style="fill: rgb(255, 255, 255); opacity: 0.1; transform-origin: 370.644px 255.045px;" class="animable"></path></g><g id="elllau88m7qg"><path d="M381.44,256.52c-3.47,3.3-10.78,6-16.31,6-3.54,0-5.5-1.09-5.53-2.75.71,1,2.49,1.65,5.17,1.65,5.54,0,12.84-2.67,16.32-6a4.69,4.69,0,0,0,1.82-3.19C383.66,253.31,383.23,254.83,381.44,256.52Z" style="opacity: 0.2; transform-origin: 371.431px 257.375px;" class="animable"></path></g><g id="elds3xnjhsrd6"><polygon points="343.57 310.43 342.75 311.25 342.75 279.64 371.67 279.64 371 280.89 343.57 310.43" style="opacity: 0.2; transform-origin: 357.21px 295.445px;" class="animable"></polygon></g><g id="elx9v15y5t5rd"><polygon points="371.67 279.64 371.67 311.25 342.75 311.25 343.57 310.43 371 280.89 371.67 279.64" style="fill: rgb(255, 255, 255); opacity: 0.4; transform-origin: 357.21px 295.445px;" class="animable"></polygon></g><rect x="343.57" y="280.89" width="3.92" height="4.22" style="fill: rgb(38, 50, 56); transform-origin: 345.53px 283px;" id="el4t9dlhf8luj" class="animable"></rect><rect x="347.49" y="280.89" width="3.92" height="4.22" style="fill: rgb(38, 50, 56); transform-origin: 349.45px 283px;" id="el206wvj3ntfw" class="animable"></rect><rect x="351.4" y="280.89" width="3.92" height="4.22" style="fill: rgb(38, 50, 56); transform-origin: 353.36px 283px;" id="elocaisvwv30m" class="animable"></rect><rect x="355.32" y="280.89" width="3.92" height="4.22" style="fill: rgb(38, 50, 56); transform-origin: 357.28px 283px;" id="ell9fh3akw4ie" class="animable"></rect><rect x="359.24" y="280.89" width="3.92" height="4.22" style="fill: rgb(38, 50, 56); transform-origin: 361.2px 283px;" id="elwz6fhugm1y" class="animable"></rect><rect x="363.16" y="280.89" width="3.92" height="4.22" style="fill: rgb(38, 50, 56); transform-origin: 365.12px 283px;" id="elxhozigah6p" class="animable"></rect><rect x="367.08" y="280.89" width="3.92" height="4.22" style="fill: rgb(38, 50, 56); transform-origin: 369.04px 283px;" id="el03a1zvn7er3h" class="animable"></rect><rect x="343.57" y="285.11" width="3.92" height="4.22" style="fill: rgb(38, 50, 56); transform-origin: 345.53px 287.22px;" id="elr416j483w6" class="animable"></rect><rect x="347.49" y="285.11" width="3.92" height="4.22" style="fill: rgb(38, 50, 56); transform-origin: 349.45px 287.22px;" id="el39a7ls3i94a" class="animable"></rect><rect x="351.4" y="285.11" width="3.92" height="4.22" style="fill: rgb(38, 50, 56); transform-origin: 353.36px 287.22px;" id="ela2xo84gu5vc" class="animable"></rect><rect x="355.32" y="285.11" width="3.92" height="4.22" style="fill: rgb(38, 50, 56); transform-origin: 357.28px 287.22px;" id="el49ingogtnc7" class="animable"></rect><rect x="359.24" y="285.11" width="3.92" height="4.22" style="fill: rgb(38, 50, 56); transform-origin: 361.2px 287.22px;" id="ela8nq3c9d548" class="animable"></rect><rect x="363.16" y="285.11" width="3.92" height="4.22" style="fill: rgb(38, 50, 56); transform-origin: 365.12px 287.22px;" id="elmeem3qxqv6" class="animable"></rect><rect x="367.08" y="285.11" width="3.92" height="4.22" style="fill: rgb(38, 50, 56); transform-origin: 369.04px 287.22px;" id="el623plrsxa0i" class="animable"></rect><rect x="343.57" y="289.33" width="3.92" height="4.22" style="fill: rgb(38, 50, 56); transform-origin: 345.53px 291.44px;" id="elq7o6ehw1ycm" class="animable"></rect><rect x="347.49" y="289.33" width="3.92" height="4.22" style="fill: rgb(38, 50, 56); transform-origin: 349.45px 291.44px;" id="elfa8dae4rz1o" class="animable"></rect><rect x="351.4" y="289.33" width="3.92" height="4.22" style="fill: rgb(38, 50, 56); transform-origin: 353.36px 291.44px;" id="elimlt3w2myj" class="animable"></rect><rect x="355.32" y="289.33" width="3.92" height="4.22" style="fill: rgb(38, 50, 56); transform-origin: 357.28px 291.44px;" id="elquwa09ugyrk" class="animable"></rect><rect x="359.24" y="289.33" width="3.92" height="4.22" style="fill: rgb(38, 50, 56); transform-origin: 361.2px 291.44px;" id="elv1sqwbhqumo" class="animable"></rect><rect x="363.16" y="289.33" width="3.92" height="4.22" style="fill: rgb(38, 50, 56); transform-origin: 365.12px 291.44px;" id="elq4g9gg36ta" class="animable"></rect><rect x="367.08" y="289.33" width="3.92" height="4.22" style="fill: rgb(38, 50, 56); transform-origin: 369.04px 291.44px;" id="el8otiq6hkcq3" class="animable"></rect><rect x="343.57" y="293.55" width="3.92" height="4.22" style="fill: rgb(38, 50, 56); transform-origin: 345.53px 295.66px;" id="eldzhkcd31wwn" class="animable"></rect><rect x="347.49" y="293.55" width="3.92" height="4.22" style="fill: rgb(38, 50, 56); transform-origin: 349.45px 295.66px;" id="el7mc7w39hymf" class="animable"></rect><rect x="351.4" y="293.55" width="3.92" height="4.22" style="fill: rgb(38, 50, 56); transform-origin: 353.36px 295.66px;" id="eltradfr71fji" class="animable"></rect><rect x="355.32" y="293.55" width="3.92" height="4.22" style="fill: rgb(38, 50, 56); transform-origin: 357.28px 295.66px;" id="el6kv4zoivqwh" class="animable"></rect><rect x="359.24" y="293.55" width="3.92" height="4.22" style="fill: rgb(38, 50, 56); transform-origin: 361.2px 295.66px;" id="elm6pirr5xynt" class="animable"></rect><rect x="363.16" y="293.55" width="3.92" height="4.22" style="fill: rgb(38, 50, 56); transform-origin: 365.12px 295.66px;" id="elpvb3iumxupk" class="animable"></rect><rect x="367.08" y="293.55" width="3.92" height="4.22" style="fill: rgb(38, 50, 56); transform-origin: 369.04px 295.66px;" id="elnh6vckvbzhk" class="animable"></rect><rect x="343.57" y="297.77" width="3.92" height="4.22" style="fill: rgb(38, 50, 56); transform-origin: 345.53px 299.88px;" id="eltyxduo4xwok" class="animable"></rect><rect x="347.49" y="297.77" width="3.92" height="4.22" style="fill: rgb(38, 50, 56); transform-origin: 349.45px 299.88px;" id="elm78mggkz559" class="animable"></rect><rect x="351.4" y="297.77" width="3.92" height="4.22" style="fill: rgb(38, 50, 56); transform-origin: 353.36px 299.88px;" id="elnnkl54q479i" class="animable"></rect><rect x="355.32" y="297.77" width="3.92" height="4.22" style="fill: rgb(38, 50, 56); transform-origin: 357.28px 299.88px;" id="elnw0q8kc4ii" class="animable"></rect><rect x="359.24" y="297.77" width="3.92" height="4.22" style="fill: rgb(38, 50, 56); transform-origin: 361.2px 299.88px;" id="elqyhp56i6wp8" class="animable"></rect><rect x="363.16" y="297.77" width="3.92" height="4.22" style="fill: rgb(38, 50, 56); transform-origin: 365.12px 299.88px;" id="el7d6rnqs5ub5" class="animable"></rect><rect x="367.08" y="297.77" width="3.92" height="4.22" style="fill: rgb(38, 50, 56); transform-origin: 369.04px 299.88px;" id="eleuediuh78lm" class="animable"></rect><rect x="343.57" y="301.99" width="3.92" height="4.22" style="fill: rgb(38, 50, 56); transform-origin: 345.53px 304.1px;" id="elcpx2rbhbbrd" class="animable"></rect><rect x="347.49" y="301.99" width="3.92" height="4.22" style="fill: rgb(38, 50, 56); transform-origin: 349.45px 304.1px;" id="elkyw46e6oyo" class="animable"></rect><rect x="351.4" y="301.99" width="3.92" height="4.22" style="fill: rgb(38, 50, 56); transform-origin: 353.36px 304.1px;" id="el3hf32er1ji3" class="animable"></rect><rect x="355.32" y="301.99" width="3.92" height="4.22" style="fill: rgb(38, 50, 56); transform-origin: 357.28px 304.1px;" id="el6ndz03380nq" class="animable"></rect><rect x="359.24" y="301.99" width="3.92" height="4.22" style="fill: rgb(38, 50, 56); transform-origin: 361.2px 304.1px;" id="elx5sxseqmmt" class="animable"></rect><rect x="363.16" y="301.99" width="3.92" height="4.22" style="fill: rgb(38, 50, 56); transform-origin: 365.12px 304.1px;" id="eleiadkklo2ps" class="animable"></rect><rect x="367.08" y="301.99" width="3.92" height="4.22" style="fill: rgb(38, 50, 56); transform-origin: 369.04px 304.1px;" id="el6kklbwpigzf" class="animable"></rect><rect x="343.57" y="306.21" width="3.92" height="4.22" style="fill: rgb(38, 50, 56); transform-origin: 345.53px 308.32px;" id="elsfuf33mym6" class="animable"></rect><rect x="347.49" y="306.21" width="3.92" height="4.22" style="fill: rgb(38, 50, 56); transform-origin: 349.45px 308.32px;" id="elpxmvslg7e9d" class="animable"></rect><rect x="351.4" y="306.21" width="3.92" height="4.22" style="fill: rgb(38, 50, 56); transform-origin: 353.36px 308.32px;" id="el35morw3hxqe" class="animable"></rect><rect x="355.32" y="306.21" width="3.92" height="4.22" style="fill: rgb(38, 50, 56); transform-origin: 357.28px 308.32px;" id="eluip3hmv9p5" class="animable"></rect><rect x="359.24" y="306.21" width="3.92" height="4.22" style="fill: rgb(38, 50, 56); transform-origin: 361.2px 308.32px;" id="elaj8qgcj3igf" class="animable"></rect><rect x="363.16" y="306.21" width="3.92" height="4.22" style="fill: rgb(38, 50, 56); transform-origin: 365.12px 308.32px;" id="el4dmnbjxxhk5" class="animable"></rect><rect x="367.08" y="306.21" width="3.92" height="4.22" style="fill: rgb(38, 50, 56); transform-origin: 369.04px 308.32px;" id="elgwrv3irpn2t" class="animable"></rect><rect x="347.49" y="285.11" width="3.92" height="4.22" style="fill: rgb(186, 104, 200); transform-origin: 349.45px 287.22px;" id="elpfe0m6czni" class="animable"></rect><rect x="363.16" y="285.11" width="3.92" height="4.22" style="fill: rgb(186, 104, 200); transform-origin: 365.12px 287.22px;" id="elubvj1p3vcg" class="animable"></rect><rect x="351.4" y="289.33" width="3.92" height="4.22" style="fill: rgb(186, 104, 200); transform-origin: 353.36px 291.44px;" id="elnz6twn5uav" class="animable"></rect><rect x="359.24" y="289.33" width="3.92" height="4.22" style="fill: rgb(186, 104, 200); transform-origin: 361.2px 291.44px;" id="eluqbm9vjghz" class="animable"></rect><rect x="355.32" y="293.55" width="3.92" height="4.22" style="fill: rgb(186, 104, 200); transform-origin: 357.28px 295.66px;" id="eli0q2uh48hne" class="animable"></rect><rect x="351.4" y="297.77" width="3.92" height="4.22" style="fill: rgb(186, 104, 200); transform-origin: 353.36px 299.88px;" id="el5tm3ot4fnw" class="animable"></rect><rect x="359.24" y="297.77" width="3.92" height="4.22" style="fill: rgb(186, 104, 200); transform-origin: 361.2px 299.88px;" id="el6mla268hnrl" class="animable"></rect><rect x="347.49" y="301.99" width="3.92" height="4.22" style="fill: rgb(186, 104, 200); transform-origin: 349.45px 304.1px;" id="el009lleqnl4tce" class="animable"></rect><rect x="363.16" y="301.99" width="3.92" height="4.22" style="fill: rgb(186, 104, 200); transform-origin: 365.12px 304.1px;" id="eldex1s6farda" class="animable"></rect><polygon points="405.76 408.12 337.76 408.12 334.56 418.32 408.97 418.32 405.76 408.12" style="fill: rgb(186, 104, 200); transform-origin: 371.765px 413.22px;" id="el5fdnoq8cwji" class="animable"></polygon><g id="el9keggx44pdn"><polygon points="371.67 418.32 371.76 408.22 405.76 408.12 408.97 418.32 371.67 418.32" style="opacity: 0.2; transform-origin: 390.32px 413.22px;" class="animable"></polygon></g></g><g id="freepik--No--inject-7" class="animable" style="transform-origin: 225.855px 144.91px;"><rect x="203.83" y="124.25" width="44.05" height="33.74" rx="8.98" style="fill: rgb(186, 104, 200); transform-origin: 225.855px 141.12px;" id="ellppe8h8zvjc" class="animable"></rect><g id="elk8jr7cjbzog"><rect x="203.83" y="124.25" width="44.05" height="33.74" rx="8.98" style="fill: rgb(255, 255, 255); opacity: 0.8; transform-origin: 225.855px 141.12px;" class="animable"></rect></g><path d="M224.42,136.24v8.4h-1l-5-6.26v6.26h-1.2v-8.4h1l5,6.26v-6.26Z" style="fill: rgb(38, 50, 56); transform-origin: 220.82px 140.44px;" id="el1i8sbbkkb2j" class="animable"></path><path d="M226.26,140.44a4.47,4.47,0,1,1,4.48,4.29A4.27,4.27,0,0,1,226.26,140.44Zm7.73,0a3.27,3.27,0,1,0-3.25,3.22A3.15,3.15,0,0,0,234,140.44Z" style="fill: rgb(38, 50, 56); transform-origin: 230.726px 140.263px;" id="elh7nc5nagobt" class="animable"></path><polygon points="224.37 156.78 214.33 165.57 218.57 156.78 224.37 156.78" style="fill: rgb(186, 104, 200); transform-origin: 219.35px 161.175px;" id="elp8ka84p5wqb" class="animable"></polygon><g id="eld0oksxjvdu"><polygon points="224.37 156.78 214.33 165.57 218.57 156.78 224.37 156.78" style="fill: rgb(255, 255, 255); opacity: 0.8; transform-origin: 219.35px 161.175px;" class="animable"></polygon></g></g><g id="freepik--Yes--inject-7" class="animable" style="transform-origin: 168.815px 144.91px;"><rect x="146.79" y="124.25" width="44.05" height="33.74" rx="8.98" style="fill: rgb(186, 104, 200); transform-origin: 168.815px 141.12px;" id="elu4i53flpneq" class="animable"></rect><g id="elviqhyj3c5d8"><rect x="146.79" y="124.25" width="44.05" height="33.74" rx="8.98" style="fill: rgb(255, 255, 255); opacity: 0.8; transform-origin: 168.815px 141.12px;" class="animable"></rect></g><path d="M161.75,141.73v2.91h-1.19v-2.93l-3.33-5.47h1.28l2.69,4.43,2.7-4.43h1.19Z" style="fill: rgb(38, 50, 56); transform-origin: 161.16px 140.44px;" id="eljzbesflr9p" class="animable"></path><path d="M172.25,143.59v1h-6.09v-8.4h5.92v1h-4.72v2.58h4.21v1h-4.21v2.71Z" style="fill: rgb(38, 50, 56); transform-origin: 169.205px 140.39px;" id="elbxu4cm6wpnm" class="animable"></path><path d="M173.43,143.68l.44-.94a4.3,4.3,0,0,0,2.77,1c1.45,0,2.08-.56,2.08-1.29,0-2-5.09-.76-5.09-3.88,0-1.29,1-2.39,3.22-2.39a5,5,0,0,1,2.7.74l-.4,1a4.32,4.32,0,0,0-2.3-.69c-1.43,0-2,.6-2,1.34,0,2.05,5.08.76,5.08,3.85,0,1.28-1,2.38-3.25,2.38A5,5,0,0,1,173.43,143.68Z" style="fill: rgb(38, 50, 56); transform-origin: 176.68px 140.49px;" id="elvjir9oxlqp" class="animable"></path><polygon points="170.29 156.78 180.33 165.57 176.09 156.78 170.29 156.78" style="fill: rgb(186, 104, 200); transform-origin: 175.31px 161.175px;" id="ely3o76evfjk8" class="animable"></polygon><g id="el5fnb82zgdvf"><polygon points="170.29 156.78 180.33 165.57 176.09 156.78 170.29 156.78" style="fill: rgb(255, 255, 255); opacity: 0.8; transform-origin: 175.31px 161.175px;" class="animable"></polygon></g></g><g id="freepik--Character--inject-7" class="animable" style="transform-origin: 191.727px 294.195px;"><path d="M207.08,214.36c4.38-1.24,9-2.68,13.22-4.29a59.91,59.91,0,0,0,6.1-2.67,22.65,22.65,0,0,0,2.57-1.52,7.81,7.81,0,0,0,1.51-1.3c.11-.11.06-.07.06.15,0,.05.05-.07,0-.26a5.49,5.49,0,0,0-.75-1.93,27.19,27.19,0,0,0-3.9-4.89,111.58,111.58,0,0,0-10.49-9.23l-.08-.06a2.45,2.45,0,0,1,2.54-4.15A65.48,65.48,0,0,1,231,192a30.64,30.64,0,0,1,5.86,5.86,13.54,13.54,0,0,1,2.29,4.63,9.26,9.26,0,0,1,.26,3.35,8.64,8.64,0,0,1-1.23,3.52,15.28,15.28,0,0,1-3.55,3.88,32.86,32.86,0,0,1-3.56,2.41,58.59,58.59,0,0,1-7.08,3.48c-2.37,1-4.74,1.86-7.14,2.64s-4.75,1.49-7.3,2.1a4.93,4.93,0,0,1-2.49-9.53Z" style="fill: rgb(221, 138, 125); transform-origin: 221.526px 203.982px;" id="el01zfnzl4rwba" class="animable"></path><path d="M202.6,211.65s11.16-.47,19-3.1L225.36,222s-16.75,10.41-21.33,6S202.6,211.65,202.6,211.65Z" style="fill: rgb(186, 104, 200); transform-origin: 213.452px 218.819px;" id="elch5puhqqwjs" class="animable"></path><g id="ellg5v1j90cf"><path d="M225.36,222s-7.51,4.67-13.84,6.43c-2.94.82-5.61,1-7.18-.16a2.42,2.42,0,0,1-.31-.25c-4.58-4.39-1.43-16.41-1.43-16.41s11.16-.47,19-3.1Z" style="fill: rgb(255, 255, 255); opacity: 0.7; transform-origin: 213.452px 218.801px;" class="animable"></path></g><polygon points="220.22 208.55 224.31 223.53 226.29 222.6 222.2 207.55 220.22 208.55" style="fill: rgb(186, 104, 200); transform-origin: 223.255px 215.54px;" id="eltk8a89dydhb" class="animable"></polygon><g id="elz0wy97uv35q"><polygon points="220.22 208.55 224.31 223.53 226.29 222.6 222.2 207.55 220.22 208.55" style="fill: rgb(255, 255, 255); opacity: 0.5; transform-origin: 223.255px 215.54px;" class="animable"></polygon></g><g id="eljxzm8hq3kr"><path d="M211.52,228.47c-2.94.82-5.61,1-7.18-.16a24.24,24.24,0,0,1,1.1-9.47S209.29,220.26,211.52,228.47Z" style="opacity: 0.1; transform-origin: 207.889px 223.986px;" class="animable"></path></g><path d="M175.38,218.43c-4.42,1.68-9,3.6-13.24,5.67a57.11,57.11,0,0,0-6,3.36,19.1,19.1,0,0,0-2.33,1.8c-.64.55-1,1.18-1,1s0-.06,0-.09,0-.16,0-.08a1.66,1.66,0,0,0,0,.32v.21l0,.27a4.46,4.46,0,0,0,.14.59,16.32,16.32,0,0,0,1.08,2.79,51.51,51.51,0,0,0,3.53,6c2.66,4,5.69,8,8.74,11.81l.05.06A2.45,2.45,0,0,1,163,255.6a89.34,89.34,0,0,1-11.26-10.76,50.06,50.06,0,0,1-4.87-6.52,24.79,24.79,0,0,1-2-4.06,10.92,10.92,0,0,1-.4-1.22l-.17-.65-.14-.71a12.31,12.31,0,0,1-.15-1.57,7.42,7.42,0,0,1,0-1,6.58,6.58,0,0,1,.18-1,10.06,10.06,0,0,1,1.37-3.14,15.2,15.2,0,0,1,1.67-2.12,26,26,0,0,1,3.44-3,54.35,54.35,0,0,1,7-4.37,100.51,100.51,0,0,1,14.45-6.28,4.92,4.92,0,0,1,3.38,9.25Z" style="fill: rgb(221, 138, 125); transform-origin: 161.363px 232.454px;" id="el52epp0vf25c" class="animable"></path><path d="M219.28,184.87l-3.76-5.55-4.34,7.29s4.25,4,6.61,1.95Z" style="fill: rgb(228, 137, 123); transform-origin: 215.23px 184.232px;" id="elx2ebov7haqa" class="animable"></path><polygon points="210.29 177.63 206.98 183.83 211.18 186.61 215.52 179.32 210.29 177.63" style="fill: rgb(228, 137, 123); transform-origin: 211.25px 182.12px;" id="el1wyzyy2momi" class="animable"></polygon><polygon points="216.53 411.8 210.02 413.65 208.47 403.51 207.64 398.09 214.15 396.25 215.26 403.51 216.53 411.8" style="fill: rgb(228, 137, 123); transform-origin: 212.085px 404.95px;" id="elsnxs1rin0t" class="animable"></polygon><polygon points="179.09 412.33 172.38 413.22 172.32 403.51 172.27 397.48 178.99 396.6 179.04 403.51 179.09 412.33" style="fill: rgb(228, 137, 123); transform-origin: 175.68px 404.91px;" id="elvfv6p8ve81" class="animable"></polygon><g id="el1am8rkc60xf"><polygon points="178.99 396.6 179.04 403.51 172.32 403.51 172.27 397.48 178.99 396.6" style="opacity: 0.2; transform-origin: 175.655px 400.055px;" class="animable"></polygon></g><g id="elpo6byw7e78"><polygon points="215.26 403.51 208.47 403.51 207.64 398.09 214.15 396.25 215.26 403.51" style="opacity: 0.2; transform-origin: 211.45px 399.88px;" class="animable"></polygon></g><path d="M216.45,410.79l-7.39-.2a.58.58,0,0,0-.59.44l-1.56,6a1,1,0,0,0,.93,1.22c2.67,0,6.53,0,9.89.07,3.92.1,6.41-.09,11,0,2.78.07,3.65-2.71,2.5-3-5.26-1.3-8.7-1-13.17-4A3.08,3.08,0,0,0,216.45,410.79Z" style="fill: rgb(38, 50, 56); transform-origin: 219.304px 414.47px;" id="elkit0yxkzhu" class="animable"></path><path d="M217,411.6a.16.16,0,0,1,.09-.16c.31-.15,3.08-1.46,3.89-1a.51.51,0,0,1,.25.43.91.91,0,0,1-.33.77c-.77.64-2.7.32-3.78.07h0A.16.16,0,0,1,217,411.6Zm.66-.07c1.49.29,2.6.25,3-.1a.58.58,0,0,0,.22-.51.22.22,0,0,0-.1-.18l-.06,0C220.24,410.53,218.74,411.05,217.65,411.53Z" style="fill: rgb(186, 104, 200); transform-origin: 219.116px 411.179px;" id="eltxjegjqfkuh" class="animable"></path><path d="M217.05,411.71a.13.13,0,0,1-.06-.14,4.54,4.54,0,0,1,1.14-2.57,1.18,1.18,0,0,1,.9-.25c.44.06.56.28.58.46.1.77-1.57,2.18-2.4,2.52a.17.17,0,0,1-.12,0Zm1.94-2.64a.8.8,0,0,0-.66.18,3.71,3.71,0,0,0-1,2.05c.85-.47,2-1.59,1.93-2.05,0,0,0-.1-.14-.15A.57.57,0,0,0,219,409.07Z" style="fill: rgb(186, 104, 200); transform-origin: 218.301px 410.24px;" id="elmw3mlc6ma6" class="animable"></path><path d="M178.83,410.79l-7.4-.2a.58.58,0,0,0-.59.44l-1.56,6a1,1,0,0,0,.93,1.22c2.67,0,6.53,0,9.89.07,3.92.1,6.41-.09,11,0,2.78.07,3.65-2.71,2.5-3-5.26-1.3-8.7-1-13.17-4A3.08,3.08,0,0,0,178.83,410.79Z" style="fill: rgb(38, 50, 56); transform-origin: 181.674px 414.47px;" id="elb30xwu8b1h6" class="animable"></path><path d="M179.36,411.6a.16.16,0,0,1,.09-.16c.31-.15,3.08-1.46,3.89-1a.51.51,0,0,1,.25.43.91.91,0,0,1-.33.77c-.77.64-2.7.32-3.78.07h0A.16.16,0,0,1,179.36,411.6Zm.66-.07c1.49.29,2.61.25,3-.1a.6.6,0,0,0,.21-.51.2.2,0,0,0-.1-.18l0,0C182.61,410.53,181.12,411.05,180,411.53Z" style="fill: rgb(186, 104, 200); transform-origin: 181.476px 411.179px;" id="elh7dww4aw129" class="animable"></path><path d="M179.42,411.71a.13.13,0,0,1-.06-.14A4.54,4.54,0,0,1,180.5,409a1.18,1.18,0,0,1,.9-.25c.44.06.56.28.58.46.1.77-1.57,2.18-2.4,2.52a.17.17,0,0,1-.12,0Zm1.94-2.64a.8.8,0,0,0-.66.18,3.71,3.71,0,0,0-1,2.05c.85-.47,2-1.59,1.93-2.05,0,0,0-.1-.14-.15A.57.57,0,0,0,181.36,409.07Z" style="fill: rgb(186, 104, 200); transform-origin: 180.671px 410.24px;" id="eliffgwb1n9u" class="animable"></path><path d="M165.24,264.72c-3.55,15.42,2.55,136.72,2.55,136.72h11.8l5-101.09,18.58,101.09,12.61-.92c-8.25-78.31-15.53-125.06-15.53-125.06l0-5.91Z" style="fill: rgb(38, 50, 56); transform-origin: 189.955px 333.08px;" id="el5abzl5mmfld" class="animable"></path><g id="elj4zbc7vt8l"><path d="M215.82,400.52l-12.61.92-14.62-79.58-4-21.51-5,101.09h-11.8s-6.1-121.3-2.55-136.72l35.07,4.83,0,5.91S207.57,322.21,215.82,400.52Z" style="fill: rgb(255, 255, 255); opacity: 0.2; transform-origin: 189.975px 333.08px;" class="animable"></path></g><path d="M171.6,207.6a149.3,149.3,0,0,1-.56,22.11c-.49,5.13-1.18,10-1.9,14.36-1.7,10.27-3.62,18-3.9,20.65l35.07,4.83c12.78-35.75,8-56.56,8-56.56a69.2,69.2,0,0,0-8.05-2.75c-.57-.16-1.16-.3-1.77-.44a130,130,0,0,0-14.9-2.06c-.95-.08-1.91-.14-2.86-.19C175.91,207.33,171.6,207.6,171.6,207.6Z" style="fill: rgb(186, 104, 200); transform-origin: 187.213px 238.507px;" id="eljq8tt8dck5e" class="animable"></path><g id="el0j455ahnl93i"><path d="M200.3,269.55l-35.06-4.83c.28-2.69,2.2-10.38,3.9-20.65.66-4,1.29-8.38,1.77-13,0-.44.09-.89.13-1.34.33-3.44.57-7,.68-10.64s.09-7.62-.12-11.47c0,0,4.31-.27,9.1,0,.94,0,1.91.11,2.86.19a130,130,0,0,1,14.9,2.06c.61.14,1.2.28,1.77.44a68.62,68.62,0,0,1,8,2.75S213.09,233.8,200.3,269.55Z" style="fill: rgb(255, 255, 255); opacity: 0.7; transform-origin: 187.188px 238.525px;" class="animable"></path></g><path d="M190.37,191.52c-.26,4.91-1.5,13.72-5.58,16,0,0,8.05,6.35,10.47,6.33,1.7,0,4.16-2.8,4.16-2.8-4.94-2.51-3.83-6.36-2-9.78Z" style="fill: rgb(228, 137, 123); transform-origin: 192.105px 202.685px;" id="elgzqcz9lk829" class="animable"></path><g id="elqsr0yhdj82n"><path d="M193.24,195.52l4.18,5.79a15,15,0,0,0-1.1,2.48c-1.93-.77-4.14-3.63-3.82-5.77A7.11,7.11,0,0,1,193.24,195.52Z" style="opacity: 0.2; transform-origin: 194.944px 199.655px;" class="animable"></path></g><path d="M208.75,182.62c.58,2.6-.31,7.77-3.7,5.77S207.76,178.14,208.75,182.62Z" style="fill: rgb(38, 50, 56); transform-origin: 206.474px 185.073px;" id="el7g1lliqgo7" class="animable"></path><path d="M190.18,184.46c-1,6.49-1.84,10.24.72,14.18,3.84,5.92,12.39,4.57,15.27-1.52,2.59-5.47,3.72-15.16-2-19A9,9,0,0,0,190.18,184.46Z" style="fill: rgb(228, 137, 123); transform-origin: 198.75px 189.506px;" id="elunmngvsce6" class="animable"></path><path d="M188.08,175.18c-4.48,1.76-4.52,12.86,1,16.63,3.38-2.26,5-11,5-11Z" style="fill: rgb(38, 50, 56); transform-origin: 189.451px 183.495px;" id="elgvin56nysu5" class="animable"></path><path d="M186.59,189.28a6.13,6.13,0,0,0,2.27,4.16c1.71,1.36,3.42,0,3.67-2,.21-1.85-.41-4.78-2.47-5.33A2.83,2.83,0,0,0,186.59,189.28Z" style="fill: rgb(228, 137, 123); transform-origin: 189.564px 190.009px;" id="elnprf2kz93t9" class="animable"></path><path d="M199.56,188.21c-.11.52.08,1,.42,1.06s.71-.3.82-.82-.08-1-.42-1.07S199.67,187.68,199.56,188.21Z" style="fill: rgb(38, 50, 56); transform-origin: 200.18px 188.324px;" id="elakvp0nm3q5" class="animable"></path><path d="M205.47,189.39c-.11.52.08,1,.42,1.07s.71-.3.82-.82-.08-1-.42-1.07S205.58,188.87,205.47,189.39Z" style="fill: rgb(38, 50, 56); transform-origin: 206.09px 189.515px;" id="el39quwjo0bbd" class="animable"></path><path d="M203.54,189.27a18.27,18.27,0,0,0,1.64,4.81,3.15,3.15,0,0,1-2.58-.07Z" style="fill: rgb(222, 87, 83); transform-origin: 203.89px 191.796px;" id="elvn3wtcvxipl" class="animable"></path><path d="M197.63,193.14A4.37,4.37,0,0,0,197,193a.16.16,0,0,0-.19.12.15.15,0,0,0,.12.18,4.21,4.21,0,0,1,3,2.34.16.16,0,0,0,.29-.11A4.25,4.25,0,0,0,197.63,193.14Z" style="fill: rgb(38, 50, 56); transform-origin: 198.514px 194.352px;" id="elt6lciyo9r" class="animable"></path><path d="M199,185.25a.35.35,0,0,0,.31-.06,2.47,2.47,0,0,1,2.18-.63.33.33,0,0,0,.39-.22.31.31,0,0,0-.22-.39,3.17,3.17,0,0,0-2.77.77.31.31,0,0,0,0,.44A.42.42,0,0,0,199,185.25Z" style="fill: rgb(38, 50, 56); transform-origin: 200.346px 184.575px;" id="elfs1lstyowc9" class="animable"></path><path d="M208.45,186.53a.28.28,0,0,0,.18,0,.31.31,0,0,0,.23-.38A3.08,3.08,0,0,0,207,184a.33.33,0,0,0-.4.2.32.32,0,0,0,.2.4,2.39,2.39,0,0,1,1.44,1.73A.3.3,0,0,0,208.45,186.53Z" style="fill: rgb(38, 50, 56); transform-origin: 207.727px 185.266px;" id="elzwidclbczz" class="animable"></path><path d="M193.19,180.41a6.49,6.49,0,0,0,4,2.82,4,4,0,0,1-.44-2.11s2.52,2.62,9.32,2.11l-1.3-1.38s5,.27,6.39-1.44,1.39-5.15,1.39-5.15l-1.32,1.37a3.63,3.63,0,0,1,.6-2.78s-2.63-.89-4.12.49c0,0,.31-2.5-1-3.63,0,0-2.67,2.18-5.51,1.45l1.65-1.12s-7-2.24-10.78,0v-1s-5.31,2.58-3.79,7.46S193.19,180.41,193.19,180.41Z" style="fill: rgb(38, 50, 56); transform-origin: 200.278px 176.668px;" id="elnhgvoe1l7ic" class="animable"></path><path d="M195.26,213.9s-2,1.78-4.2,3.5c-2.69-1.79-8.94-6.47-8.18-10,.52-1,3.33-1.33,3.33-1.33S188.72,210.27,195.26,213.9Z" style="fill: rgb(186, 104, 200); transform-origin: 189.038px 211.735px;" id="ellpig3z8q9o" class="animable"></path><path d="M195.26,213.9a19,19,0,0,1,3.22,4.39c2.28-1.11,2-7.91,1.32-8.74a7.57,7.57,0,0,0-3.52-1.38A6.2,6.2,0,0,1,195.26,213.9Z" style="fill: rgb(186, 104, 200); transform-origin: 197.773px 213.23px;" id="elgqdtdp7xez" class="animable"></path><g id="elhmbjinxg5w"><g style="opacity: 0.5; transform-origin: 191.551px 212.18px;" class="animable"><path d="M195.26,213.9s-2,1.78-4.2,3.5c-2.69-1.79-8.94-6.47-8.18-10,.52-1,3.33-1.33,3.33-1.33S188.72,210.27,195.26,213.9Z" style="fill: rgb(255, 255, 255); transform-origin: 189.038px 211.735px;" id="elp5sss0rqcjd" class="animable"></path><path d="M195.26,213.9a19,19,0,0,1,3.22,4.39c2.28-1.11,2-7.91,1.32-8.74a7.57,7.57,0,0,0-3.52-1.38A6.2,6.2,0,0,1,195.26,213.9Z" style="fill: rgb(255, 255, 255); transform-origin: 197.773px 213.23px;" id="elfmjtmdvljdg" class="animable"></path></g></g><path d="M167.47,256.39l-.88,4-6.73-5.16s2.46-5.29,5.42-4.27l.93,1A5,5,0,0,1,167.47,256.39Z" style="fill: rgb(228, 137, 123); transform-origin: 163.716px 255.61px;" id="elejek7yd597r" class="animable"></path><polygon points="162.36 263.87 156.99 259.35 159.86 255.21 166.59 260.37 162.36 263.87" style="fill: rgb(228, 137, 123); transform-origin: 161.79px 259.54px;" id="eln7rde1k2txf" class="animable"></polygon><g id="ely1vjxpd08h"><path d="M188.59,321.86l-4-21.51L185.4,289S190.82,308.71,188.59,321.86Z" style="opacity: 0.2; transform-origin: 186.859px 305.43px;" class="animable"></path></g><g id="elrg98a0djd3"><path d="M175.32,217.4s-1,9-4.41,13.65c0-.44.09-.89.13-1.34.33-3.44.57-7,.68-10.64A5.71,5.71,0,0,1,175.32,217.4Z" style="opacity: 0.1; transform-origin: 173.115px 224.225px;" class="animable"></path></g><path d="M171.6,207.6c-7.5-.94-20.41,9.8-20.41,9.8l8.8,11.82,15.72-6.75S180.73,208.76,171.6,207.6Z" style="fill: rgb(186, 104, 200); transform-origin: 164.138px 218.381px;" id="eldycgracsukq" class="animable"></path><g id="elstom3hjz1x"><path d="M171.6,207.6c-7.5-.94-20.41,9.8-20.41,9.8l8.8,11.82,15.72-6.75S180.73,208.76,171.6,207.6Z" style="fill: rgb(255, 255, 255); opacity: 0.7; transform-origin: 164.138px 218.381px;" class="animable"></path></g><polygon points="150.9 217.14 159.87 229.82 161.79 228.81 152.51 215.66 150.9 217.14" style="fill: rgb(186, 104, 200); transform-origin: 156.345px 222.74px;" id="elbfxcx982dj" class="animable"></polygon><g id="elpywaleidax"><polygon points="150.9 217.14 159.87 229.82 161.79 228.81 152.51 215.66 150.9 217.14" style="fill: rgb(255, 255, 255); opacity: 0.5; transform-origin: 156.345px 222.74px;" class="animable"></polygon></g></g><defs>     <filter id="active" height="200%">         <feMorphology in="SourceAlpha" result="DILATED" operator="dilate" radius="2"></feMorphology>                <feFlood flood-color="#32DFEC" flood-opacity="1" result="PINK"></feFlood>        <feComposite in="PINK" in2="DILATED" operator="in" result="OUTLINE"></feComposite>        <feMerge>            <feMergeNode in="OUTLINE"></feMergeNode>            <feMergeNode in="SourceGraphic"></feMergeNode>        </feMerge>    </filter>    <filter id="hover" height="200%">        <feMorphology in="SourceAlpha" result="DILATED" operator="dilate" radius="2"></feMorphology>                <feFlood flood-color="#ff0000" flood-opacity="0.5" result="PINK"></feFlood>        <feComposite in="PINK" in2="DILATED" operator="in" result="OUTLINE"></feComposite>        <feMerge>            <feMergeNode in="OUTLINE"></feMergeNode>            <feMergeNode in="SourceGraphic"></feMergeNode>        </feMerge>            <feColorMatrix type="matrix" values="0   0   0   0   0                0   1   0   0   0                0   0   0   0   0                0   0   0   1   0 "></feColorMatrix>    </filter></defs></svg>